solid ascii
  facet normal 0.000000e+000 1.000000e+000 -0.000000e+000
    outer loop
      vertex   -5.668654e+001 6.073986e+001 6.000000e-001
      vertex   -6.668654e+001 6.073986e+001 6.000000e-001
      vertex   -5.668654e+001 6.073986e+001 1.060000e+001
    endloop
  endfacet
  facet normal 0.000000e+000 7.071068e-001 0.000000e+000
    outer loop
      vertex   -5.668654e+001 6.073986e+001 1.060000e+001
      vertex   -6.668654e+001 6.073986e+001 6.000000e-001
      vertex   -6.668654e+001 6.073986e+001 1.060000e+001
    endloop
  endfacet
  facet normal 0.000000e+000 -1.000000e+000 0.000000e+000
    outer loop
      vertex   -6.668654e+001 5.823986e+001 6.000000e-001
      vertex   -5.668654e+001 5.823986e+001 6.000000e-001
      vertex   -6.668654e+001 5.823986e+001 1.060000e+001
    endloop
  endfacet
  facet normal 0.000000e+000 -7.071068e-001 0.000000e+000
    outer loop
      vertex   -6.668654e+001 5.823986e+001 1.060000e+001
      vertex   -5.668654e+001 5.823986e+001 6.000000e-001
      vertex   -5.668654e+001 5.823986e+001 1.060000e+001
    endloop
  endfacet
  facet normal 0.000000e+000 0.000000e+000 1.000000e+000
    outer loop
      vertex   -6.668654e+001 5.823986e+001 1.060000e+001
      vertex   -5.668654e+001 5.823986e+001 1.060000e+001
      vertex   -6.668654e+001 6.073986e+001 1.060000e+001
    endloop
  endfacet
  facet normal -0.000000e+000 0.000000e+000 2.425356e-001
    outer loop
      vertex   -6.668654e+001 6.073986e+001 1.060000e+001
      vertex   -5.668654e+001 5.823986e+001 1.060000e+001
      vertex   -5.668654e+001 6.073986e+001 1.060000e+001
    endloop
  endfacet
  facet normal 0.000000e+000 0.000000e+000 1.000000e+000
    outer loop
      vertex   -5.668654e+001 5.823986e+001 6.000000e-001
      vertex   -6.668654e+001 5.823986e+001 6.000000e-001
      vertex   -5.668654e+001 5.703986e+001 6.000000e-001
    endloop
  endfacet
  facet normal 0.000000e+000 0.000000e+000 1.191449e-001
    outer loop
      vertex   -5.668654e+001 5.703986e+001 6.000000e-001
      vertex   -6.668654e+001 5.823986e+001 6.000000e-001
      vertex   -6.668654e+001 5.703986e+001 6.000000e-001
    endloop
  endfacet
  facet normal 0.000000e+000 -1.000000e+000 0.000000e+000
    outer loop
      vertex   -6.668654e+001 6.193986e+001 6.000000e-001
      vertex   -5.668654e+001 6.193986e+001 6.000000e-001
      vertex   -6.668654e+001 6.193986e+001 5.600000e+000
    endloop
  endfacet
  facet normal 0.000000e+000 -4.472136e-001 0.000000e+000
    outer loop
      vertex   -6.668654e+001 6.193986e+001 5.600000e+000
      vertex   -5.668654e+001 6.193986e+001 6.000000e-001
      vertex   -5.668654e+001 6.193986e+001 5.600000e+000
    endloop
  endfacet
  facet normal 0.000000e+000 0.000000e+000 1.000000e+000
    outer loop
      vertex   -6.668654e+001 6.193986e+001 5.600000e+000
      vertex   -5.668654e+001 6.193986e+001 5.600000e+000
      vertex   -6.668654e+001 6.273986e+001 5.600000e+000
    endloop
  endfacet
  facet normal -0.000000e+000 0.000000e+000 7.974514e-002
    outer loop
      vertex   -6.668654e+001 6.273986e+001 5.600000e+000
      vertex   -5.668654e+001 6.193986e+001 5.600000e+000
      vertex   -5.668654e+001 6.273986e+001 5.600000e+000
    endloop
  endfacet
  facet normal 0.000000e+000 0.000000e+000 1.000000e+000
    outer loop
      vertex   -6.668654e+001 6.073986e+001 6.000000e-001
      vertex   -5.668654e+001 6.073986e+001 6.000000e-001
      vertex   -6.668654e+001 6.193986e+001 6.000000e-001
    endloop
  endfacet
  facet normal -0.000000e+000 0.000000e+000 1.191453e-001
    outer loop
      vertex   -6.668654e+001 6.193986e+001 6.000000e-001
      vertex   -5.668654e+001 6.073986e+001 6.000000e-001
      vertex   -5.668654e+001 6.193986e+001 6.000000e-001
    endloop
  endfacet
  facet normal 0.000000e+000 1.000000e+000 -0.000000e+000
    outer loop
      vertex   -5.668654e+001 5.703986e+001 6.000000e-001
      vertex   -6.668654e+001 5.703986e+001 6.000000e-001
      vertex   -5.668654e+001 5.703986e+001 5.600000e+000
    endloop
  endfacet
  facet normal 0.000000e+000 4.472136e-001 0.000000e+000
    outer loop
      vertex   -5.668654e+001 5.703986e+001 5.600000e+000
      vertex   -6.668654e+001 5.703986e+001 6.000000e-001
      vertex   -6.668654e+001 5.703986e+001 5.600000e+000
    endloop
  endfacet
  facet normal 0.000000e+000 0.000000e+000 1.000000e+000
    outer loop
      vertex   -5.668654e+001 5.703986e+001 5.600000e+000
      vertex   -6.668654e+001 5.703986e+001 5.600000e+000
      vertex   -5.668654e+001 5.623986e+001 5.600000e+000
    endloop
  endfacet
  facet normal 0.000000e+000 0.000000e+000 7.974552e-002
    outer loop
      vertex   -5.668654e+001 5.623986e+001 5.600000e+000
      vertex   -6.668654e+001 5.703986e+001 5.600000e+000
      vertex   -6.668654e+001 5.623986e+001 5.600000e+000
    endloop
  endfacet
  facet normal 0.000000e+000 1.000000e+000 -0.000000e+000
    outer loop
      vertex   -5.668654e+001 6.273986e+001 0.000000e+000
      vertex   -6.668654e+001 6.273986e+001 0.000000e+000
      vertex   -5.668654e+001 6.273986e+001 5.600000e+000
    endloop
  endfacet
  facet normal 0.000000e+000 4.886034e-001 0.000000e+000
    outer loop
      vertex   -5.668654e+001 6.273986e+001 5.600000e+000
      vertex   -6.668654e+001 6.273986e+001 0.000000e+000
      vertex   -6.668654e+001 6.273986e+001 5.600000e+000
    endloop
  endfacet
  facet normal 1.321637e-001 0.000000e+000 0.000000e+000
    outer loop
      vertex   -5.668654e+001 6.273986e+001 0.000000e+000
      vertex   -5.668654e+001 5.823986e+001 6.000000e-001
      vertex   -5.668654e+001 5.623986e+001 0.000000e+000
    endloop
  endfacet
  facet normal 3.448158e-001 0.000000e+000 0.000000e+000
    outer loop
      vertex   -5.668654e+001 5.623986e+001 0.000000e+000
      vertex   -5.668654e+001 5.823986e+001 6.000000e-001
      vertex   -5.668654e+001 5.703986e+001 6.000000e-001
    endloop
  endfacet
  facet normal 8.000011e-001 0.000000e+000 0.000000e+000
    outer loop
      vertex   -5.668654e+001 5.623986e+001 0.000000e+000
      vertex   -5.668654e+001 5.703986e+001 6.000000e-001
      vertex   -5.668654e+001 5.623986e+001 5.600000e+000
    endloop
  endfacet
  facet normal 9.874405e-001 -0.000000e+000 0.000000e+000
    outer loop
      vertex   -5.668654e+001 5.623986e+001 5.600000e+000
      vertex   -5.668654e+001 5.703986e+001 6.000000e-001
      vertex   -5.668654e+001 5.703986e+001 5.600000e+000
    endloop
  endfacet
  facet normal 1.579904e-001 0.000000e+000 0.000000e+000
    outer loop
      vertex   -5.668654e+001 6.273986e+001 5.600000e+000
      vertex   -5.668654e+001 6.193986e+001 6.000000e-001
      vertex   -5.668654e+001 6.273986e+001 0.000000e+000
    endloop
  endfacet
  facet normal 3.448179e-001 0.000000e+000 0.000000e+000
    outer loop
      vertex   -5.668654e+001 6.273986e+001 0.000000e+000
      vertex   -5.668654e+001 6.193986e+001 6.000000e-001
      vertex   -5.668654e+001 6.073986e+001 6.000000e-001
    endloop
  endfacet
  facet normal 1.582374e-001 0.000000e+000 0.000000e+000
    outer loop
      vertex   -5.668654e+001 6.273986e+001 0.000000e+000
      vertex   -5.668654e+001 6.073986e+001 6.000000e-001
      vertex   -5.668654e+001 5.823986e+001 6.000000e-001
    endloop
  endfacet
  facet normal 1.000000e+000 0.000000e+000 0.000000e+000
    outer loop
      vertex   -5.668654e+001 5.823986e+001 6.000000e-001
      vertex   -5.668654e+001 6.073986e+001 6.000000e-001
      vertex   -5.668654e+001 5.823986e+001 1.060000e+001
    endloop
  endfacet
  facet normal 9.701425e-001 -0.000000e+000 0.000000e+000
    outer loop
      vertex   -5.668654e+001 5.823986e+001 1.060000e+001
      vertex   -5.668654e+001 6.073986e+001 6.000000e-001
      vertex   -5.668654e+001 6.073986e+001 1.060000e+001
    endloop
  endfacet
  facet normal 9.874406e-001 0.000000e+000 0.000000e+000
    outer loop
      vertex   -5.668654e+001 6.273986e+001 5.600000e+000
      vertex   -5.668654e+001 6.193986e+001 5.600000e+000
      vertex   -5.668654e+001 6.193986e+001 6.000000e-001
    endloop
  endfacet
  facet normal 0.000000e+000 -1.000000e+000 0.000000e+000
    outer loop
      vertex   -6.668654e+001 5.623986e+001 0.000000e+000
      vertex   -5.668654e+001 5.623986e+001 0.000000e+000
      vertex   -6.668654e+001 5.623986e+001 5.600000e+000
    endloop
  endfacet
  facet normal 0.000000e+000 -4.886034e-001 0.000000e+000
    outer loop
      vertex   -6.668654e+001 5.623986e+001 5.600000e+000
      vertex   -5.668654e+001 5.623986e+001 0.000000e+000
      vertex   -5.668654e+001 5.623986e+001 5.600000e+000
    endloop
  endfacet
  facet normal -1.321637e-001 0.000000e+000 0.000000e+000
    outer loop
      vertex   -6.668654e+001 5.623986e+001 0.000000e+000
      vertex   -6.668654e+001 6.073986e+001 6.000000e-001
      vertex   -6.668654e+001 6.273986e+001 0.000000e+000
    endloop
  endfacet
  facet normal -3.448179e-001 0.000000e+000 0.000000e+000
    outer loop
      vertex   -6.668654e+001 6.273986e+001 0.000000e+000
      vertex   -6.668654e+001 6.073986e+001 6.000000e-001
      vertex   -6.668654e+001 6.193986e+001 6.000000e-001
    endloop
  endfacet
  facet normal -7.999997e-001 0.000000e+000 0.000000e+000
    outer loop
      vertex   -6.668654e+001 6.273986e+001 0.000000e+000
      vertex   -6.668654e+001 6.193986e+001 6.000000e-001
      vertex   -6.668654e+001 6.273986e+001 5.600000e+000
    endloop
  endfacet
  facet normal -9.874406e-001 -0.000000e+000 0.000000e+000
    outer loop
      vertex   -6.668654e+001 6.273986e+001 5.600000e+000
      vertex   -6.668654e+001 6.193986e+001 6.000000e-001
      vertex   -6.668654e+001 6.193986e+001 5.600000e+000
    endloop
  endfacet
  facet normal -1.579911e-001 0.000000e+000 0.000000e+000
    outer loop
      vertex   -6.668654e+001 5.623986e+001 5.600000e+000
      vertex   -6.668654e+001 5.703986e+001 6.000000e-001
      vertex   -6.668654e+001 5.623986e+001 0.000000e+000
    endloop
  endfacet
  facet normal -3.448158e-001 0.000000e+000 0.000000e+000
    outer loop
      vertex   -6.668654e+001 5.623986e+001 0.000000e+000
      vertex   -6.668654e+001 5.703986e+001 6.000000e-001
      vertex   -6.668654e+001 5.823986e+001 6.000000e-001
    endloop
  endfacet
  facet normal -1.582374e-001 0.000000e+000 0.000000e+000
    outer loop
      vertex   -6.668654e+001 5.623986e+001 0.000000e+000
      vertex   -6.668654e+001 5.823986e+001 6.000000e-001
      vertex   -6.668654e+001 6.073986e+001 6.000000e-001
    endloop
  endfacet
  facet normal -1.000000e+000 0.000000e+000 0.000000e+000
    outer loop
      vertex   -6.668654e+001 6.073986e+001 6.000000e-001
      vertex   -6.668654e+001 5.823986e+001 6.000000e-001
      vertex   -6.668654e+001 6.073986e+001 1.060000e+001
    endloop
  endfacet
  facet normal -9.701425e-001 -0.000000e+000 0.000000e+000
    outer loop
      vertex   -6.668654e+001 6.073986e+001 1.060000e+001
      vertex   -6.668654e+001 5.823986e+001 6.000000e-001
      vertex   -6.668654e+001 5.823986e+001 1.060000e+001
    endloop
  endfacet
  facet normal -9.874405e-001 0.000000e+000 0.000000e+000
    outer loop
      vertex   -6.668654e+001 5.623986e+001 5.600000e+000
      vertex   -6.668654e+001 5.703986e+001 5.600000e+000
      vertex   -6.668654e+001 5.703986e+001 6.000000e-001
    endloop
  endfacet
  facet normal 0.000000e+000 0.000000e+000 -1.000000e+000
    outer loop
      vertex   -6.668654e+001 6.273986e+001 0.000000e+000
      vertex   -5.668654e+001 6.273986e+001 0.000000e+000
      vertex   -6.668654e+001 5.623986e+001 0.000000e+000
    endloop
  endfacet
  facet normal 0.000000e+000 0.000000e+000 -5.449883e-001
    outer loop
      vertex   -6.668654e+001 5.623986e+001 0.000000e+000
      vertex   -5.668654e+001 6.273986e+001 0.000000e+000
      vertex   -5.668654e+001 5.623986e+001 0.000000e+000
    endloop
  endfacet
endsolid
